<mxfile host="app.diagrams.net" modified="2023-11-06T14:02:50.114Z" agent="Mozilla/5.0 (X11; Linux x86_64) AppleWebKit/537.36 (KHTML, like Gecko) Chrome/119.0.0.0 Safari/537.36" version="22.0.8" etag="p7qBcdm4XMx9ageRcOhh" type="github">
  <diagram name="Page-1" id="Ov43nM7yb4R8pD6XEKvG">
    <mxGraphModel>
      <root>
        <mxCell id="0" />
        <mxCell id="1" parent="0" />
      </root>
    </mxGraphModel>
  </diagram>
</mxfile>
